<svg width="40" height="40" viewBox="0 0 40 40" fill="none" xmlns="http://www.w3.org/2000/svg">
<path d="M22 0V6.07519C28.78 7.05764 34 12.8722 34 19.9499C34 21.7544 33.64 23.4586 33.04 25.0426L38.24 28.1103C39.36 25.6241 40 22.8571 40 19.9499C40 9.56391 32.1 1.00251 22 0ZM20 33.985C12.26 33.985 6 27.7093 6 19.9499C6 12.8722 11.22 7.05764 18 6.07519V0C7.88 1.00251 0 9.54386 0 19.9499C0 31.0175 8.94 40 19.98 40C26.6 40 32.46 36.7719 36.1 31.7995L30.9 28.7318C28.34 31.9398 24.42 33.985 20 33.985Z" fill="#FFFAF5"/>
</svg>
