<svg width="40" height="40" viewBox="0 0 40 40" fill="none" xmlns="http://www.w3.org/2000/svg">
<path d="M16.5556 22.1667L19.4444 25.0556C19.8519 25.463 20.3704 25.6667 21 25.6667C21.6296 25.6667 22.1481 25.463 22.5556 25.0556L28.8889 18.7222V20.0556C28.8889 20.6852 29.1022 21.2037 29.5289 21.6111C29.9541 22.0185 30.4815 22.2222 31.1111 22.2222C31.7407 22.2222 32.2682 22.0089 32.6933 21.5822C33.12 21.157 33.3333 20.6296 33.3333 20V13.3333C33.3333 12.7037 33.12 12.1756 32.6933 11.7489C32.2682 11.3237 31.7407 11.1111 31.1111 11.1111H24.3889C23.7593 11.1111 23.2407 11.3237 22.8333 11.7489C22.4259 12.1756 22.2222 12.7037 22.2222 13.3333C22.2222 13.963 22.4356 14.4904 22.8622 14.9156C23.2874 15.3422 23.8148 15.5556 24.4444 15.5556H25.7222L21 20.3333L18.1111 17.4444C17.7037 17 17.1852 16.7778 16.5556 16.7778C15.9259 16.7778 15.4074 17 15 17.4444L8.22222 24.2222C7.77778 24.6296 7.55556 25.1481 7.55556 25.7778C7.55556 26.4074 7.77778 26.9259 8.22222 27.3333C8.62963 27.7778 9.14815 28 9.77778 28C10.4074 28 10.9259 27.7778 11.3333 27.3333L16.5556 22.1667ZM4.44444 40C3.22222 40 2.17556 39.5652 1.30444 38.6956C0.434815 37.8244 0 36.7778 0 35.5556V4.44444C0 3.22222 0.434815 2.17556 1.30444 1.30444C2.17556 0.434815 3.22222 0 4.44444 0H35.5556C36.7778 0 37.8244 0.434815 38.6956 1.30444C39.5652 2.17556 40 3.22222 40 4.44444V35.5556C40 36.7778 39.5652 37.8244 38.6956 38.6956C37.8244 39.5652 36.7778 40 35.5556 40H4.44444Z" fill="#FFFAF5"/>
</svg>
