<svg width="40" height="40" viewBox="0 0 40 40" fill="none" xmlns="http://www.w3.org/2000/svg">
<path d="M20 17.7778C14.4444 17.7778 9.72222 16.9074 5.83333 15.1667C1.94444 13.4259 0 11.3333 0 8.88889C0 6.44444 1.94444 4.35185 5.83333 2.61111C9.72222 0.870371 14.4444 0 20 0C25.5556 0 30.2778 0.870371 34.1667 2.61111C38.0556 4.35185 40 6.44444 40 8.88889C40 11.3333 38.0556 13.4259 34.1667 15.1667C30.2778 16.9074 25.5556 17.7778 20 17.7778ZM20 28.8889C14.4444 28.8889 9.72222 28.0185 5.83333 26.2778C1.94444 24.537 0 22.4444 0 20V14.4444C0 16.0741 0.75926 17.4541 2.27778 18.5844C3.7963 19.7133 5.61111 20.6296 7.72222 21.3333C9.83333 22.037 12.0281 22.5459 14.3067 22.86C16.5837 23.1756 18.4815 23.3333 20 23.3333C21.5185 23.3333 23.4163 23.1756 25.6933 22.86C27.9719 22.5459 30.1667 22.037 32.2778 21.3333C34.3889 20.6296 36.2037 19.7133 37.7222 18.5844C39.2407 17.4541 40 16.0741 40 14.4444V20C40 22.4444 38.0556 24.537 34.1667 26.2778C30.2778 28.0185 25.5556 28.8889 20 28.8889ZM20 40C14.4444 40 9.72222 39.1296 5.83333 37.3889C1.94444 35.6482 0 33.5556 0 31.1111V25.5556C0 27.1852 0.75926 28.5652 2.27778 29.6956C3.7963 30.8244 5.61111 31.7407 7.72222 32.4444C9.83333 33.1482 12.0281 33.6578 14.3067 33.9733C16.5837 34.2874 18.4815 34.4444 20 34.4444C21.5185 34.4444 23.4163 34.2874 25.6933 33.9733C27.9719 33.6578 30.1667 33.1482 32.2778 32.4444C34.3889 31.7407 36.2037 30.8244 37.7222 29.6956C39.2407 28.5652 40 27.1852 40 25.5556V31.1111C40 33.5556 38.0556 35.6482 34.1667 37.3889C30.2778 39.1296 25.5556 40 20 40Z" fill="#FFFAF5"/>
</svg>
