<svg width="320" height="101" viewBox="0 0 320 101" fill="none" xmlns="http://www.w3.org/2000/svg">
<path d="M244 20H276.5L281 25L284 30L287.5 36L290.5 42L312.5 44.5L315.5 45.5L318.5 59L320 78.5H301.353V76L300.5 73L298.5 70L295.5 66.5L293 64.5L289.5 62.5L286.5 61.5L282.5 61H277L273.5 61.5L270 63L267.5 64.5L265 66.5L263 69L261.5 71.5L260.5 73.5L260 76V78.5H244.5L244 20Z" fill="#026773"/>
<rect x="302" y="84" width="18" height="6" fill="#026773"/>
<rect x="244" y="84" width="15" height="6" fill="#026773"/>
<rect y="84" width="242" height="6" fill="#026773"/>
<rect x="80" y="2" width="151" height="6" fill="#026773"/>
<rect x="238" y="16" width="4" height="68" fill="#026773"/>
<path d="M229.331 8.51498L230.831 2.51504L234.331 3.01501L235.831 3.51501L237.331 4.51501L239.331 6.51502L240.331 8.10756L241.331 10.015L241.831 12.5149L241.831 16.5149L237.831 17.515L237.831 13.515L237.831 12.5149L236.831 10.5149L235.331 9.51501L234.331 9.01501L231.831 8.51501L229.331 8.51498Z" fill="#026773"/>
<path d="M248 25H273L279 32L285 44H253.5H251.5L249.5 43.5L248.5 42L248 39.5V25Z" fill="white"/>
<path d="M62.5098 24.7705H69.4445V32.0905H65.9771V37.4842H69.4445V67.1495H62.5098V37.4842H65.9771V32.0905H62.5098V24.7705Z" fill="#3CA6A6"/>
<path d="M34 27.0823H56.3453V33.6317H40.9347V43.2633H54.4189V50.1981H40.9347V60.2149H57.1158V67.1496H34V27.0823Z" fill="#3CA6A6"/>
<path d="M83.3135 27.0823H112.593V34.017H101.421V67.1496H94.1008V34.017H83.3135V27.0823Z" fill="white"/>
<path d="M114.135 37.099H120.684V41.7222L123.381 39.4106L126.078 37.8695L128.775 37.099L131.086 36.9116V43.6485H128.39L126.848 44.0337L124.922 44.8042L123.381 45.5748L121.84 46.7306L121.07 47.5011V67.1495H114.135V37.099Z" fill="white"/>
<path d="M134.554 37.0989H141.103V57.1326L141.488 58.6736L141.874 59.8294L142.644 60.5999L143.8 61.3705H146.112L147.653 60.9852L149.194 60.2147L151.12 59.0589L152.276 58.1023V37.0989H158.825V67.1494H152.661V63.682L152.276 64.0673L147.653 67.1494L145.5 67.4999H142.5L138.792 66.7641L137.636 65.9936L136.48 64.4526L136.095 63.682L135.324 62.141L134.554 59.4441V37.0989Z" fill="white"/>
<path d="M168.071 38.7957L171.539 37.2547L175.391 36.4841L180.785 37.2547L185.408 38.7957L183.867 44.5747L180.785 43.4189L178.088 43.0336H175.391L173.08 43.8041L171.539 45.3452L171.153 48.8126V51.8947V55.362L171.539 58.4441L173.08 60.3704L175.391 61.141H178.088L180.785 60.7557L183.867 59.5999L185.793 65.3789L180.785 67.3052L175.391 67.6904L171.539 66.9199L168.071 64.6083L165.76 61.5262L164.219 56.9031V46.501L165.375 42.6483L168.071 38.7957Z" fill="white"/>
<path d="M191.188 24H197.737V50.7457L200.819 47.8863L203.901 44.4189L206.213 40.9516L208.139 37.4842H215.844L213.918 41.3368L211.992 44.4189L209.68 47.5011L206.983 50.5832L217 67.1495H208.91L201.204 55.2063L197.737 58.2884V67.1495H191.188V24Z" fill="white"/>
<path d="M297 83.5C297 93.165 289.165 101 279.5 101C269.835 101 262 93.165 262 83.5C262 73.835 269.835 66 279.5 66C289.165 66 297 73.835 297 83.5ZM270.532 83.5C270.532 88.453 274.547 92.4682 279.5 92.4682C284.453 92.4682 288.468 88.453 288.468 83.5C288.468 78.547 284.453 74.5318 279.5 74.5318C274.547 74.5318 270.532 78.547 270.532 83.5Z" fill="#026773"/>
<path d="M276 79.6241L276.145 79.2941L276.29 79.1471L276.581 79H277.016L277.452 79.1471L284.565 83.1176L284.855 83.4118L285 83.8529V84.2941L284.855 84.5882L284.565 84.8824L277.742 88.8529L277.452 89H277.016H276.581L276.29 88.8529L276.145 88.7059L276 88.2647V84.2941V79.6241Z" fill="white"/>
</svg>
